<svg xmlns="http://www.w3.org/2000/svg" xmlns:xlink="http://www.w3.org/1999/xlink" style="display: none"><defs><style>.cls-1{fill:#040000}</style></defs><symbol id="arrow" viewBox="0 0 299.51 167.33"><g data-name="&#x30EC;&#x30A4;&#x30E4;&#x30FC; 2"><path d="M281.94 0L149.76 132.18 17.57 0 0 17.57l132.18 132.19 17.58 17.57 17.57-17.57L299.51 17.57 281.94 0z" data-name="&#x30EC;&#x30A4;&#x30E4;&#x30FC; 1"/></g></symbol><symbol id="bag" viewBox="0 0 302.56 399.56"><g data-name="&#x30EC;&#x30A4;&#x30E4;&#x30FC; 2"><path d="M213.31 70.69V64.2c0-11.63-.59-19.51-2.32-25.6a52.66 52.66 0 0 0-5.89-13.78 46.65 46.65 0 0 0-8.72-10.16Q179.36 0 151.18 0q-27.68 0-44.8 14.76a44.8 44.8 0 0 0-8.72 10.06 54.65 54.65 0 0 0-6 14.09c-1.8 6.28-2.42 14-2.42 25.08v6.7H0v328.87h302.56V70.69zM110 64q0-17 2.69-24.05a29.73 29.73 0 0 1 8.77-12.18q11.56-9.6 29.93-9.59 12.9 0 22.4 4.79a33.11 33.11 0 0 1 14.14 12.75q4.65 7.95 4.64 28.28v6.7H110zm176.11 319.12H16.44v-296h72.81v49.33H110V87.14h82.57v49.33h20.75V87.14h72.8z" data-name="&#x30EC;&#x30A4;&#x30E4;&#x30FC; 1"/></g></symbol><symbol id="check" viewBox="0 0 362.24 262.86"><g data-name="&#x30EC;&#x30A4;&#x30E4;&#x30FC; 2"><path d="M343.14 0l-217.3 224.68L19.09 117.92 0 137.02l106.75 106.75 19.09 19.09 19.09-19.09L362.24 19.09 343.14 0z" data-name="&#x30EC;&#x30A4;&#x30E4;&#x30FC; 1"/></g></symbol><symbol id="circle" viewBox="0 0 355.5 355.5"><g data-name="&#x30EC;&#x30A4;&#x30E4;&#x30FC; 2"><path d="M177.75 0A177.75 177.75 0 1 0 355.5 177.75 177.75 177.75 0 0 0 177.75 0zm0 303.22a125.47 125.47 0 1 1 125.47-125.47 125.46 125.46 0 0 1-125.47 125.47z" data-name="&#x30EC;&#x30A4;&#x30E4;&#x30FC; 1"/></g></symbol><symbol id="circle_on" viewBox="0 0 355.5 355.5"><g data-name="&#x30EC;&#x30A4;&#x30E4;&#x30FC; 2"><path d="M177.75 0A177.75 177.75 0 1 0 355.5 177.75 177.75 177.75 0 0 0 177.75 0z" data-name="&#x30EC;&#x30A4;&#x30E4;&#x30FC; 1"/></g></symbol><symbol id="close" viewBox="0 0 299.51 299.33"><g data-name="&#x30EC;&#x30A4;&#x30E4;&#x30FC; 2"><path d="M299.51 17.57L281.94 0 149.85 132.09l-.09-.09-.1.09L17.57 0 0 17.57l132.09 132.09L0 281.76l17.57 17.57 132.09-132.09.1.09.09-.09 132.09 132.09 17.57-17.57-132.09-132.1L299.51 17.57z" data-name="&#x30EC;&#x30A4;&#x30E4;&#x30FC; 1"/></g></symbol><symbol id="facebook" viewBox="0 0 156 300"><path d="M101 300V163h46l7-53h-53V76c0-15.45 4.86-26 27-26h28V2c-4.89-.65-21.5-2-41-2-40.72 0-69 25.34-69 71v39H0v53h46v137h55z" fill="#1e1e1e"/></symbol><symbol id="favorite"><path d="M7.52 14L1.21 7.57a4.66 4.66 0 0 1-.56-.76A4.31 4.31 0 0 1 .26 6 4.91 4.91 0 0 1 0 4.44 4.22 4.22 0 0 1 4.26 0 4.37 4.37 0 0 1 7.5 1.45 4.37 4.37 0 0 1 10.74 0 4.22 4.22 0 0 1 15 4.44 4.72 4.72 0 0 1 14.75 6a4.65 4.65 0 0 1-.42.87 4.69 4.69 0 0 1-.49.68zM2 6.77l5.52 5.67L13 6.72a2.9 2.9 0 0 0 .35-.49 3.19 3.19 0 0 0 .32-.64 3.8 3.8 0 0 0 .19-1.15 3.1 3.1 0 0 0-3.16-3.29A3.31 3.31 0 0 0 8 2.69l-.5.71-.5-.71a3.31 3.31 0 0 0-2.74-1.54A3.1 3.1 0 0 0 1.1 4.44a3.64 3.64 0 0 0 .2 1.17 4.15 4.15 0 0 0 .29.6 3.84 3.84 0 0 0 .41.56z"/></symbol><symbol id="favorite_on"><path d="M7.52 14L1.21 7.57a4.66 4.66 0 0 1-.56-.76A4.31 4.31 0 0 1 .26 6 4.91 4.91 0 0 1 0 4.44 4.22 4.22 0 0 1 4.26 0 4.37 4.37 0 0 1 7.5 1.45 4.37 4.37 0 0 1 10.74 0 4.22 4.22 0 0 1 15 4.44 4.72 4.72 0 0 1 14.75 6a4.65 4.65 0 0 1-.42.87 4.69 4.69 0 0 1-.49.68z"/></symbol><symbol id="heart" viewBox="0 0 322.78 289.49"><g data-name="&#x30EC;&#x30A4;&#x30E4;&#x30FC; 2"><path d="M161.92 289.49L26 156.52a97.87 97.87 0 0 1-12-15.76A87.58 87.58 0 0 1 5.62 124 95.79 95.79 0 0 1 0 91.82C0 38.84 38.78 0 91.67 0a95.78 95.78 0 0 1 69.72 30.08A95.8 95.8 0 0 1 231.11 0c52.9 0 91.67 38.84 91.67 91.82a96.25 96.25 0 0 1-5.42 31.65 88.21 88.21 0 0 1-9 17.89 96.07 96.07 0 0 1-10.6 14.06l-.75.77zM43 139.92l118.86 117.37 118.7-118.24a72.73 72.73 0 0 0 7.63-10.21 64.72 64.72 0 0 0 6.81-13.22 72.16 72.16 0 0 0 4.09-23.8c0-39.88-28.13-68-67.93-68a72.12 72.12 0 0 0-59.88 31.9l-9.84 14.6-9.84-14.59a72.16 72.16 0 0 0-59.93-31.96c-39.8 0-67.93 28.17-67.93 68.05A72.29 72.29 0 0 0 28 116a64 64 0 0 0 6.35 12.37A72.09 72.09 0 0 0 43 139.92z" data-name="&#x30EC;&#x30A4;&#x30E4;&#x30FC; 1"/></g></symbol><symbol id="instagram" viewBox="0 0 512 512"><path d="M256 49.47c67.27 0 75.23.26 101.8 1.47 24.56 1.12 37.9 5.22 46.78 8.67 11.76 4.57 20.15 10.03 28.97 18.84 8.82 8.82 14.28 17.21 18.84 28.97 3.45 8.88 7.55 22.22 8.67 46.78 1.21 26.56 1.47 34.53 1.47 101.8s-.26 75.23-1.47 101.8c-1.12 24.56-5.22 37.9-8.67 46.78-4.57 11.76-10.03 20.15-18.84 28.97-8.82 8.82-17.21 14.28-28.97 18.84-8.88 3.45-22.22 7.55-46.78 8.67-26.56 1.21-34.53 1.47-101.8 1.47s-75.24-.26-101.8-1.47c-24.56-1.12-37.9-5.22-46.78-8.67-11.76-4.57-20.15-10.03-28.97-18.84-8.82-8.82-14.28-17.21-18.84-28.97-3.45-8.88-7.55-22.22-8.67-46.78-1.21-26.56-1.47-34.53-1.47-101.8s.26-75.23 1.47-101.8c1.12-24.56 5.22-37.9 8.67-46.78 4.57-11.76 10.03-20.15 18.84-28.97 8.82-8.82 17.21-14.28 28.97-18.84 8.88-3.45 22.22-7.55 46.78-8.67 26.57-1.21 34.53-1.47 101.8-1.47m0-45.39c-68.42 0-77 .29-103.87 1.52-26.81 1.22-45.13 5.48-61.15 11.71-16.57 6.44-30.62 15.05-44.62 29.06-14 14-22.62 28.05-29.06 44.61C11.07 107 6.81 125.32 5.59 152.13 4.37 179 4.08 187.58 4.08 256s.29 77 1.52 103.87c1.22 26.81 5.48 45.13 11.71 61.15 6.44 16.57 15.05 30.62 29.06 44.62 14.01 14.01 28.05 22.62 44.62 29.06 16.02 6.23 34.34 10.49 61.15 11.71 26.87 1.23 35.45 1.52 103.87 1.52s77-.29 103.87-1.52c26.81-1.22 45.13-5.48 61.15-11.71 16.57-6.44 30.62-15.05 44.62-29.06 14.01-14.01 22.62-28.05 29.06-44.62 6.23-16.02 10.49-34.34 11.71-61.15 1.23-26.87 1.52-35.45 1.52-103.87s-.29-77-1.52-103.87c-1.22-26.81-5.48-45.13-11.71-61.15-6.44-16.57-15.05-30.62-29.06-44.62-14.01-14.01-28.05-22.62-44.62-29.06-16.02-6.23-34.34-10.49-61.15-11.71C333 4.37 324.42 4.08 256 4.08z"/><path d="M256 126.64c-71.45 0-129.36 57.92-129.36 129.36S184.55 385.36 256 385.36 385.36 327.45 385.36 256 327.45 126.64 256 126.64zm0 213.33c-46.38 0-83.97-37.6-83.97-83.97s37.6-83.97 83.97-83.97c46.38 0 83.97 37.6 83.97 83.97s-37.59 83.97-83.97 83.97z"/><circle cx="390.48" cy="121.52" r="30.23"/></symbol><symbol id="line" viewBox="0 0 120 120"><g id="&#x30EC;&#x30A4;&#x30E4;&#x30FC;_2" data-name="&#x30EC;&#x30A4;&#x30E4;&#x30FC; 2"><g id="&#x30EC;&#x30A4;&#x30E4;&#x30FC;_1-2" data-name="&#x30EC;&#x30A4;&#x30E4;&#x30FC; 1"><g id="FULL_COLOR_ICON" data-name="FULL COLOR ICON"><path class="cls-1" d="M94 120H26A26 26 0 0 1 0 94V26A26 26 0 0 1 26 0h68a26 26 0 0 1 26 26v68a26 26 0 0 1-26 26z"/><g id="TYPE_A" data-name="TYPE A"><path d="M103.5 54.72c0-19.55-19.6-35.46-43.69-35.46S16.12 35.17 16.12 54.72c0 17.53 15.54 32.21 36.54 35 1.42.31 3.36.94 3.85 2.15a8.93 8.93 0 0 1 .14 4L56 99.54c-.19 1.1-.88 4.32 3.78 2.36S85 87.08 94.14 76.53c6.33-6.94 9.36-14 9.36-21.81" fill="#fff"/><path class="cls-1" d="M50.93 45.27h-3.06a.85.85 0 0 0-.85.85v19a.85.85 0 0 0 .85.85h3.06a.85.85 0 0 0 .85-.85v-19a.85.85 0 0 0-.85-.85M72 45.27h-3a.85.85 0 0 0-.85.85v11.31l-8.76-11.78-.07-.09h-3.7a.85.85 0 0 0-.85.85v19a.85.85 0 0 0 .85.85h3.06a.85.85 0 0 0 .85-.85V53.85l8.73 11.8a.88.88 0 0 0 .22.21h.11A.78.78 0 0 0 69 66h3a.85.85 0 0 0 .85-.85v-19a.83.83 0 0 0-.84-.85M43.55 61.24h-8.33V46.12a.85.85 0 0 0-.85-.85h-3.06a.85.85 0 0 0-.85.85v19a.83.83 0 0 0 .24.59.83.83 0 0 0 .59.24h12.26a.85.85 0 0 0 .85-.85v-3a.85.85 0 0 0-.85-.86M89 50a.85.85 0 0 0 .85-.85v-3.02a.85.85 0 0 0-.85-.85H76.71a.83.83 0 0 0-.59.24.83.83 0 0 0-.24.59v19a.83.83 0 0 0 .24.59.83.83 0 0 0 .59.24H89a.85.85 0 0 0 .85-.85V62.1a.85.85 0 0 0-.85-.85h-8.38V58H89a.85.85 0 0 0 .85-.85v-3.03a.85.85 0 0 0-.85-.85h-8.38v-3.22H89z"/></g></g></g></g></symbol><symbol id="logo" viewBox="0 0 162.36 100.53"><g data-name="&#x30EC;&#x30A4;&#x30E4;&#x30FC; 2"><g data-name="&#x30EC;&#x30A4;&#x30E4;&#x30FC; 1"><circle cx="40.35" cy="41.4" r="3.05"/><circle cx="64.2" cy="41.4" r="3.05"/><path d="M44.67 63.28a1.29 1.29 0 0 1-1.36-1 35.78 35.78 0 0 1 0-14.93 1.4 1.4 0 0 1 1.47-1.05c1 0 .81-1 .81-1h-10c-.49 0-.67 1 .33 1a1.4 1.4 0 0 1 1.47 1.05 35.78 35.78 0 0 1 0 14.93 1.29 1.29 0 0 1-1.42 1c-1 0-1 1.08-.19 1.08h9c.89-.04.9-1.08-.11-1.08zM68.53 63.28a1.28 1.28 0 0 1-1.36-1 34.79 34.79 0 0 1-.79-7.47 29.25 29.25 0 0 1 .56-6.6 10.28 10.28 0 0 1 .5-2.18c.16-.44.12-.76-.73-.76h-7.27c-.49 0-.68 1 .33 1a1.39 1.39 0 0 1 1.47 1 35.78 35.78 0 0 1 0 14.93 1.29 1.29 0 0 1-1.42 1c-1 0-1 1.08-.19 1.08h9c.88.04.89-1-.1-1zM161.63 96.08a1.42 1.42 0 0 1-1.47-1c-.57-3-.78-6.91-.78-13.2a112.44 112.44 0 0 1 .78-13c.11-.65.16-.88.21-1.25s-.16-.8-1-.8h-6.63c-.88 0-.89 1 .11 1a1.32 1.32 0 0 1 1.36 1 34.07 34.07 0 0 1 .77 6.75v2.52c-.21.33-.46.52-.73.32a5.83 5.83 0 0 0-4.08-1.42c-2.76 0-7.33 3.85-7.33 10.45s3.17 10.12 6 10.12c4 0 4.93-3.57 5.57-3a9.19 9.19 0 0 1-.42 1.72c-.15.42-.12.74.72.74H162c.46.07.64-.95-.37-.95zm-7.61-4a3.36 3.36 0 0 1-3.4 1c-1.53-.37-2.75-2.11-3.29-3.5a12.1 12.1 0 0 1-.59-3.43c-.16-2.45.59-8 4.11-8 2.07 0 3.55 2.08 4.17 4.47v5.09c0 .9 0 1.63-.06 2.27a5.1 5.1 0 0 1-.94 2.16z"/><path d="M61.58 45.41l-1.68-.18h-5.74c-.52 0-.48.46-.21.64a3.42 3.42 0 0 1 1.78 3.45 25.35 25.35 0 0 1-2.2 5.14c-.2.38-.56.47-.82.15a21.19 21.19 0 0 1-2-7.18c0-.42-.1-.89.5-1.11s.58-1.1 0-1.1h-7.5c-1.09 0-.51.93.33 2.08a41.17 41.17 0 0 1 4.19 7.5 70.5 70.5 0 0 1 2.6 7.62c.09.35.63 2.47.71 2.7a.34.34 0 0 0 .65 0c.76-3.15 1.49-4.52 3.39-6.06.93-.77.14-1.25-.31-1.5a5.61 5.61 0 0 1-1.13-.92 1.07 1.07 0 0 1 .1-.82c.35-.73 2.39-5.75 3-6.74A5.77 5.77 0 0 1 61 46.26c1-.26.58-.85.58-.85zM85 50.06c-.69-2.85-7-7.8-13.44-2.42-6.73 5.85-2 16.82 5.19 16.82s8-5.64 7.67-7.38c0 0-.26-1.19-1.1 0-4.78 5-8.7 1.08-9.18-.21 1-.59 10.4-5.54 10.4-5.54a1.66 1.66 0 0 0 .46-1.27zm-5.57 2.29A56.36 56.36 0 0 1 74 55.46c-.31.13-.64.44-1.06-.65l-.26-.58c-.17-.49-.33-1-.46-1.49-1.28-5 3.51-6.52 5.78-5.59s2.22 4.57 1.51 5.19zM140.83 50.06c-.69-2.85-7-7.8-13.44-2.42-6.73 5.85-2 16.82 5.18 16.82s8.05-5.64 7.67-7.38c0 0-.26-1.19-1.1 0-4.78 5-8.7 1.08-9.18-.21 1-.59 10.4-5.54 10.4-5.54s.63-.65.47-1.27zm-5.56 2.29a56.36 56.36 0 0 1-5.51 3.11c-.31.13-.64.44-1.06-.65l-.26-.58c-.17-.49-.32-1-.45-1.49-1.29-5 3.5-6.52 5.77-5.59s2.22 4.57 1.51 5.2zM53.29 82.26c-.71-3.05-7.15-8.35-13.82-2.58-6.91 6.27-2.1 18 5.33 18s8.27-6 7.89-7.91c0 0-.27-1.27-1.14 0-4.9 5.4-8.94 1.16-9.44-.22 1-.63 10.68-5.94 10.68-5.94a1.74 1.74 0 0 0 .5-1.35zm-5.73 2.46a56.3 56.3 0 0 1-5.66 3.33c-.32.14-.65.49-1.09-.68l-.26-.63c-.18-.52-.33-1.06-.46-1.6-1.33-5.37 3.6-7 5.94-6s2.27 4.91 1.53 5.58z"/><path d="M122.75 63.71c-.07-.22-.3-.41-.74-.41a1.3 1.3 0 0 1-1.35-1 2.45 2.45 0 0 1 .12-1.08c.56-1.56 1.37-3 1.89-4.6a14.18 14.18 0 0 0 .8-5.88 6.59 6.59 0 0 0-2-4 5.75 5.75 0 0 0-7.26-.83c-.39.25-1.15.92-1.65.9s-.47-.25-.47-.51c0-.08 0-.16.08-.25.16-.44.12-.76-.73-.76h-7.26c-.48 0-.67 1 .33 1a1.39 1.39 0 0 1 1.49 1.06 35.78 35.78 0 0 1 0 14.93 1.49 1.49 0 0 1-1.52 1c-.45 0-.91 0-1.37-.05a1.51 1.51 0 0 1-1.1-.41 2 2 0 0 1-.46-.92 2.34 2.34 0 0 1 .11-1.17c.56-1.56 1.33-2.56 1.85-4.16a14.15 14.15 0 0 0 .8-5.88 6.65 6.65 0 0 0-2-4 5.75 5.75 0 0 0-7.31-.78c-.39.25-1.16.91-1.65.9s-.47-.26-.47-.52c0-.08 0-.16.08-.25.16-.43.12-.76-.73-.76H85c-.48 0-.68 1 .33 1a1.41 1.41 0 0 1 1.47 1 35.78 35.78 0 0 1 0 14.93 1.29 1.29 0 0 1-1.42 1c-1 0-1 1.09-.19 1.09h9c.88 0 .89-1-.11-1a1.31 1.31 0 0 1-1.36-1.05 35.27 35.27 0 0 1-.79-7.46c0-1.82-.18-4.07.91-5.63a3.24 3.24 0 0 1 2.37-1.48 2.89 2.89 0 0 1 2 .59c2.06 1.62 2.06 6.15.16 11.89-1.21 3.4-.22 4-.12 4.08s.42.12.65.12h15.52c.88 0 .89-1-.11-1a1.31 1.31 0 0 1-1.36-1 35.34 35.34 0 0 1-.79-7.46c0-1.82-.18-4.07.92-5.64a3.26 3.26 0 0 1 2.37-1.47 2.88 2.88 0 0 1 2 .58c2.06 1.62 2.06 6.15.16 11.88-1.21 3.4-.22 4-.12 4.08s.42.13.65.13h5.16c.44-.1.63-.4.55-.67zM66.9 86c-1.8-1-3.9-1.26-5.78-2-1.51-.63-3.58-1.64-3.39-3.55.25-2.56 2.88-3.16 4.7-3 .41 0 1.89.38 1.4 1.23A2.91 2.91 0 1 0 68.54 81v-.1a2.81 2.81 0 0 0-.62-1.8 2.37 2.37 0 0 0-.27-.28C65.84 77 63.12 76 59.55 76.6c-3.77.66-5.93 3.85-5.66 5.86s.62 4.21 8.9 7.2c3.62 1.3 4.13 4 2.52 5.55a5 5 0 0 1-3.38 1.11c-1.6 0-3.52-.4-3.31-1.36A2.7 2.7 0 0 0 60 92.57a3.36 3.36 0 0 0-3.19-3.21 3.18 3.18 0 0 0-3.09 3.11 2.69 2.69 0 0 0 .72 1.87 9.88 9.88 0 0 0 5.1 2.87C62.93 98.09 67 97 69 94a5.06 5.06 0 0 0 .87-2.85A5.93 5.93 0 0 0 66.9 86zM82.19 87.3c-.72-1.24-1.4-.34-.85.64a6.83 6.83 0 0 1 .55 2.4c.15 1.37.06 3.14-1 4.17a2.09 2.09 0 0 1-1.27.55c-1.58 0-2.35-1.27-2.35-3.42v-13a1.78 1.78 0 0 1 1.13-.37 2.9 2.9 0 0 1 2.51 1.61l.77-2.54h-3.62a1.23 1.23 0 0 1-.76-.24v-5.48c0-.63-.62-.84-.8.21-.6 3.24-6.17 5.68-6.64 5.84s-.45.66.21.74 1.55-.55 1.86.94v12.54c0 1 .33 5.33 5.55 5.33 5.52 0 6.66-6.22 4.71-9.92z"/><path d="M108.34 77.36h-7.48c-.53 0-.49.46-.21.63a3.44 3.44 0 0 1 1.78 3.46 25.35 25.35 0 0 1-2.2 5.14c-.2.38-.57.47-.83.15a21.42 21.42 0 0 1-2-7.19c0-.41-.1-.88.5-1.1s.59-1.1 0-1.1h-7.5c-1.09 0 0 .92.87 2.08.09.12.46.77 1 1.81a1.5 1.5 0 0 0 0 .2A25.11 25.11 0 0 1 90 86.6c-.2.39-.56.48-.82.15a21 21 0 0 1-2-7.18c0-.41-.1-.89.5-1.11s.58-1.1 0-1.1h-7.47c-1.09 0-.51.93.33 2.09A40.47 40.47 0 0 1 84.72 87a66.25 66.25 0 0 1 2.6 7.61c.1.36.64 2.47.72 2.7s.52.39.64 0c.77-3.15 1.49-4.52 3.4-6.06.93-.77.14-1.25-.31-1.5a5.29 5.29 0 0 1-1.13-.92 1 1 0 0 1 .1-.81c.26-.55 1.42-3.38 2.27-5.25q1 2.07 1.91 4.19a66.25 66.25 0 0 1 2.6 7.61c.1.36.63 2.47.71 2.7s.53.39.65 0c.77-3.15 1.49-4.52 3.39-6.06.93-.77.15-1.25-.31-1.5a5.84 5.84 0 0 1-1.13-.92 1 1 0 0 1 .1-.81c.36-.74 2.39-5.76 3-6.74a5.87 5.87 0 0 1 3.75-2.94 2.86 2.86 0 0 0 .86-.26c.42-.32.23-.71-.23-.71z"/><path d="M91.15 79.24c-.33-.35-1.14-1.07-1.59-1.08a.4.4 0 0 1-.38-.43.4.4 0 0 1 .43-.38h2.85l-.12 1.75M113.56 76.21c-.26-.39-1.13-.11-1.57.12a14.82 14.82 0 0 0-4.39 3.35 11.84 11.84 0 0 0-2.36 10.73c1.89 6.07 8.7 9.08 13.51 5.9 3.11-2.07 4.46-5.85 4.35-9.48a13.17 13.17 0 0 0-.56-3.47c-1-3.09-4-6.43-7.58-5.6a6.22 6.22 0 0 0-3.18 1.84c-1 1.41.25 1.33 1 1.29 4.27-.06 6.22 4.22 6.81 6.12.7 2.28 1.25 6.77-1.75 7.79-2.59.87-5.11-1.5-6.48-3.54a16.56 16.56 0 0 1-1.27-2.48c-2.17-4.9-.69-9.12 2.26-11.18 1.17-.79 1.45-.96 1.21-1.39zM132.56 76.21c-.26-.39-1.13-.11-1.58.12a15.08 15.08 0 0 0-4.39 3.35 11.8 11.8 0 0 0-2.35 10.73c1.89 6.07 8.7 9.08 13.5 5.9 3.12-2.07 4.47-5.85 4.36-9.48a12.79 12.79 0 0 0-.57-3.47c-.94-3.09-4-6.43-7.57-5.6a6.29 6.29 0 0 0-3.19 1.84c-1 1.41.26 1.33 1 1.29 4.27-.06 6.23 4.22 6.81 6.12.7 2.28 1.25 6.77-1.74 7.79-2.59.87-5.12-1.5-6.49-3.54a17.56 17.56 0 0 1-1.27-2.48c-2.16-4.9-.68-9.12 2.27-11.18 1.17-.79 1.45-1 1.21-1.39zM41.93 68.32h-8.71c-.6 0-.55.53-.24.73a4.92 4.92 0 0 1 2.6 4.53c0 1.15-1.93 10.46-2.91 14.45-.12.23-.32.29-.43 0-.51-1.6-1-3.49-1.49-5.42-1.17-4.22-2.41-8.66-3-11.23v-.12c0-.2-.08-.39-.12-.56a1.18 1.18 0 0 1 .51-1.28h.06c.29-.16.75-.23.91-.35.42-.33.24-.72-.22-.72h-8.73c-.59 0-.54.53-.24.73a5.31 5.31 0 0 1 2.34 2.73l.06.2.58 2a3.09 3.09 0 0 1 0 1.51c-.82 3.14-2.4 8.82-3.14 12-.09.2-.26.27-.37.1-.47-1.5-.87-3.21-1.35-5-.8-2.86-1.62-5.82-2.25-8.23-.25-1.73.7-1.76 1.27-2.41s-.16-.79-.39-.77C14.26 71.29 12.12 68 8 67a5.33 5.33 0 0 0-1.26-.12A6.69 6.69 0 0 0 0 73.51 6.33 6.33 0 0 0 5.24 80a4 4 0 0 0 4.32-2.53s.3-.92-.15-1-.48.44-.6.95a3 3 0 0 1-3.62 1.7 5.1 5.1 0 0 1-4.12-4.92 4.93 4.93 0 0 1 4.84-5h.19a3.72 3.72 0 0 1 3.17 2c1.66 5 5.46 18.89 6.64 25.5.25 1.39.35 3.2.42 3.48a.37.37 0 0 0 .39.35.36.36 0 0 0 .33-.26c1.09-3.52 2.45-5.31 4.7-6.92 1.1-.81 1-.62-.25-1.73a4.77 4.77 0 0 1-.89-1.11 1.71 1.71 0 0 1-.14-1.11c.52-2.47 2.11-8.08 3-11.49a.31.31 0 0 1 .37-.24.37.37 0 0 1 .23.19l.06.2c1.84 6.42 4 14.7 4.56 18.7.2 1.4.22 3.15.29 3.43s.57.47.73.09c1.08-3.52 2.44-5.31 4.7-6.92 1.1-.81 1-.62-.26-1.72a4.57 4.57 0 0 1-.58-.66 1.52 1.52 0 0 1-.2-1.16c.76-3.5 2.49-11.41 3-13.16A15.8 15.8 0 0 1 40 70.3a5.15 5.15 0 0 1 1.28-.89c.29-.16.74-.23.9-.35.44-.34.25-.74-.22-.74zM39.62 36.65H30.9c-.59 0-.54.52-.24.71a4.89 4.89 0 0 1 2.6 4.52c0 1-2.25 8.45-3.44 12.87a.17.17 0 0 1-.23 0c-.47-1.49-1.17-3.16-1.66-4.91-.8-2.84-1.61-5.8-2.24-8.19-.26-1.73.7-1.77 1.27-2.41s-.17-.79-.39-.77c-2.46.08-4.59-3.16-8.74-4.24a4.85 4.85 0 0 0-1.26-.11 6.68 6.68 0 0 0-6.73 6.64 6.29 6.29 0 0 0 5.23 6.42 4 4 0 0 0 4.33-2.5s.3-.91-.15-1-.49.44-.6.93A3 3 0 0 1 15 46.25a5.08 5.08 0 0 1-4.12-4.9 4.91 4.91 0 0 1 4.84-5h.2a3.71 3.71 0 0 1 3.16 2.06c1.68 5 5.77 18.78 7 25.36.25 1.39.44 2.33.51 2.6a.37.37 0 0 0 .73.09c1.09-3.5 2.36-4.42 4.61-6 1.1-.8 1-.6-.25-1.73a4.72 4.72 0 0 1-.89-1.1 1.58 1.58 0 0 1-.17-.56c.94-3.83 3-10.56 3.51-12.15a15.79 15.79 0 0 1 3.56-6.33 4.87 4.87 0 0 1 1.28-.88c.3-.16.75-.23.91-.35.38-.36.2-.71-.26-.71zM80.82 26.3a8.12 8.12 0 0 1-5-1.65.37.37 0 0 1 0-.52.37.37 0 0 1 .49-.06 7.46 7.46 0 0 0 4.55 1.5 7.67 7.67 0 0 0 4.55-1.49.34.34 0 0 1 .49.07.37.37 0 0 1-.08.51 8.25 8.25 0 0 1-5 1.63zM74.19 22.82a.37.37 0 0 1-.3-.16 8.25 8.25 0 0 1-1.49-4.78 8.42 8.42 0 1 1 15.4 4.7.37.37 0 0 1-.63-.39 7.69 7.69 0 1 0-14.07-4.28 7.43 7.43 0 0 0 1.36 4.35.36.36 0 0 1-.09.5.2.2 0 0 1-.2.09z"/><path d="M80.89 21.25a2.21 2.21 0 1 1 2.2-2.25 2.21 2.21 0 0 1-2.2 2.21zm0-3.78A1.57 1.57 0 1 0 82.46 19a1.57 1.57 0 0 0-1.57-1.53z"/><path d="M79.31 18.13a.37.37 0 0 1-.37-.36V10a.37.37 0 0 1 .73 0v7.76a.36.36 0 0 1-.36.36zM82.48 18.22a.35.35 0 0 1-.36-.35V10a.36.36 0 0 1 .38-.34.37.37 0 0 1 .34.34v7.82a.36.36 0 0 1-.36.36zM80.9 21.42a15 15 0 0 1-8-2.09.36.36 0 0 1 .38-.62c3.95 2.63 11.59 2.59 15.12-.08a.37.37 0 0 1 .45.58 13.7 13.7 0 0 1-8 2.19z"/><path d="M82.52 18.33a.38.38 0 0 1-.37-.37.35.35 0 0 1 .33-.36 13.79 13.79 0 0 0 6-1.9.38.38 0 0 1 .5.13.36.36 0 0 1-.12.5 14.5 14.5 0 0 1-6.26 2zM79.11 18.38a16.67 16.67 0 0 1-6-2 .36.36 0 0 1-.15-.49.37.37 0 0 1 .49-.16 15.71 15.71 0 0 0 5.77 1.9.36.36 0 0 1 .31.41.35.35 0 0 1-.35.31z"/><circle cx="80.88" cy="11.43" r=".6"/><circle cx="80.88" cy="13.44" r=".6"/><circle cx="80.88" cy="15.43" r=".6"/><ellipse cx="84.83" cy="19.07" rx=".57" ry=".59"/><ellipse cx="87.07" cy="18.27" rx=".57" ry=".59"/><ellipse cx="76.94" cy="19.05" rx=".57" ry=".59"/><ellipse cx="74.68" cy="18.29" rx=".57" ry=".59"/><path d="M81 24.89c-9.39 0-19.1-2-19.1-5.47 0-2.33 4.3-4.23 11.49-5.06l.57-.06-.64 1.93h-.22c-4.58.77-6.21 2-6.21 2.84 0 1.62 5.74 3.43 14 3.43s14-1.8 14-3.43c0-.83-1.63-2.07-6.22-2.84h-.22l-.63-2 .56.06c5.69.64 11.77 2.31 11.77 5.07 0 3.44-9.72 5.48-19.1 5.48zm-8.09-9.74c-7.1.9-10.29 2.78-10.29 4.27 0 2.29 7.39 4.75 18.38 4.75s18.37-2.45 18.37-4.75c0-1.77-4.31-3.51-10.56-4.29l.15.46c2.57.46 6.61 1.48 6.61 3.52 0 2.7-7.58 4.15-14.7 4.15s-14.7-1.45-14.7-4.15c0-2.06 4-3.08 6.6-3.53l.14-.43zM83.75 10.78c-1.24-1-2.35-3.32-1.81-4.32a.93.93 0 0 1 .71-.5A3.6 3.6 0 0 1 85 7V3.61c-1 .77-2 1.25-2.84.38-.67-.69.09-2.31.64-3.27H79c1 1.77 1 2.8.67 3.2-.6.72-1.48.62-2.8-.34V7a3.7 3.7 0 0 1 2.26-1 1 1 0 0 1 .75.5c.71 1.21-.83 3.19-1.85 4.18l-.5-.52C78.69 9 79.66 7.5 79.28 6.85a.24.24 0 0 0-.21-.14c-.53-.07-1.67.77-2.29 1.37l-.62.6v-6.6l.6.48c1.85 1.52 2.24 1 2.38.9s.13-1-1-2.91L77.71 0h6.34l-.36.56C83 1.71 82.34 3.2 82.62 3.49s.82.56 2.43-1l.62-.49v6.65l-.62-.59c-.64-.62-1.77-1.47-2.3-1.39a.23.23 0 0 0-.18.13c-.27.5.45 2.46 1.63 3.41z"/><path d="M80.86 7.25A2.12 2.12 0 1 1 83 5.14a2.1 2.1 0 0 1-2.11 2.11zm0-3.6a1.48 1.48 0 1 0 1.48 1.48 1.48 1.48 0 0 0-1.48-1.48z"/></g></g></symbol><symbol id="mail" viewBox="0 0 361.5 243.19"><g data-name="&#x30EC;&#x30A4;&#x30E4;&#x30FC; 2"><path d="M0 0v243.19h361.5V0zm328 18.07l-147.25 108.2L33.5 18.07zM18.08 225.12V31.21l162.61 119.48.06-.09.06.09L343.42 31.21v193.91z" data-name="&#x30EC;&#x30A4;&#x30E4;&#x30FC; 1"/></g></symbol><symbol id="minus" viewBox="0 0 398.94 24.98"><g data-name="&#x30EC;&#x30A4;&#x30E4;&#x30FC; 2"><path d="M398.94 0h-.13v.13H0v24.85h398.81" data-name="&#x30EC;&#x30A4;&#x30E4;&#x30FC; 1"/></g></symbol><symbol id="plus" viewBox="0 0 398.59 398.59"><g data-name="&#x30EC;&#x30A4;&#x30E4;&#x30FC; 2"><path d="M211.79 0h-24.85v186.81h-.13v.13H0v24.85h186.81v186.8h24.85v-186.8h.13v-.13h186.8v-24.85h-186.8V0z" data-name="&#x30EC;&#x30A4;&#x30E4;&#x30FC; 1"/></g></symbol><symbol id="search" viewBox="0 0 297 297"><g data-name="&#x30EC;&#x30A4;&#x30E4;&#x30FC; 2"><path d="M192.56 33a112.8 112.8 0 1 0-7.18 166l97.95 98L297 283.33l-97.95-97.95A112.76 112.76 0 0 0 192.56 33zm-14.07 145.49a92.9 92.9 0 1 1 0-131.38 92.92 92.92 0 0 1 0 131.38z" data-name="&#x30EC;&#x30A4;&#x30E4;&#x30FC; 1"/></g></symbol><symbol id="share" viewBox="0 0 324.51 319.95"><g data-name="&#x30EC;&#x30A4;&#x30E4;&#x30FC; 2"><g data-name="&#x30EC;&#x30A4;&#x30E4;&#x30FC; 1"><path d="M137.51 197.85L309.28 26.08v101.67h14.99V0H196.52v14.99h102.52l-172.2 172.2 10.67 10.66z"/><path d="M308.29 217.97v85.99H16.23V16.07h91.94V.08H0v319.87h324.51V217.97h-16.22z"/></g></g></symbol><symbol id="square" viewBox="0 0 311 311"><g data-name="&#x30EC;&#x30A4;&#x30E4;&#x30FC; 2"><path d="M0 0v311h311V0zm295.45 295.45H15.55V15.55h279.9z" data-name="&#x30EC;&#x30A4;&#x30E4;&#x30FC; 1"/></g></symbol><symbol id="square_on" viewBox="0 0 311 311"><g data-name="&#x30EC;&#x30A4;&#x30E4;&#x30FC; 2"><path d="M0 0v311h311V0z" data-name="&#x30EC;&#x30A4;&#x30E4;&#x30FC; 1"/></g></symbol><symbol id="top" viewBox="0 0 299.51 385.66"><g data-name="&#x30EC;&#x30A4;&#x30E4;&#x30FC; 2"><path d="M299.51 149.76L167.33 17.57 149.76 0l-17.58 17.57L0 149.76l17.57 17.57L137.76 47.15v338.51h25V48.15l119.18 119.18 17.57-17.57z" data-name="&#x30EC;&#x30A4;&#x30E4;&#x30FC; 1"/></g></symbol><symbol id="twitter" viewBox="0 0 250 203.14"><g data-name="&#x30EC;&#x30A4;&#x30E4;&#x30FC; 2"><path d="M78.62 203.14C173 203.14 224.56 125 224.56 57.2c0-2.22 0-4.43-.15-6.63A104.36 104.36 0 0 0 250 24a102.24 102.24 0 0 1-29.46 8.07 51.46 51.46 0 0 0 22.55-28.35 102.76 102.76 0 0 1-32.57 12.45A51.34 51.34 0 0 0 123.11 63 145.63 145.63 0 0 1 17.4 9.36a51.33 51.33 0 0 0 15.88 68.47A50.84 50.84 0 0 1 10 71.41v.65a51.31 51.31 0 0 0 41.15 50.28 51.2 51.2 0 0 1-23.16.88 51.36 51.36 0 0 0 47.92 35.62 103 103 0 0 1-63.7 22A103.8 103.8 0 0 1 0 180.1a145.22 145.22 0 0 0 78.62 23" data-name="Logo FIXED"/></g></symbol></svg>